<?xml version="1.0" encoding="utf-8"?>
<!-- Generator: Adobe Illustrator 26.3.0, SVG Export Plug-In . SVG Version: 6.00 Build 0)  -->
<svg version="1.1" id="Capa_1" xmlns="http://www.w3.org/2000/svg" xmlns:xlink="http://www.w3.org/1999/xlink" x="0px" y="0px"
	 viewBox="0 0 500 500" style="enable-background:new 0 0 500 500;" xml:space="preserve">
<style type="text/css">
	.st0{fill:#ACB1B9;}
	.st1{fill:#93D500;}
	.st2{fill:#93D500;stroke:#93D500;stroke-width:0.1326;stroke-linecap:round;stroke-linejoin:round;stroke-miterlimit:10;}
	.st3{fill-rule:evenodd;clip-rule:evenodd;fill:#93D500;stroke:#93D500;stroke-width:2.617;stroke-miterlimit:10;}
</style>
<g>
	<g>
		<path class="st0" d="M218.2,259.1c-0.9-0.9-1.4-2.1-1.4-4.1v-25.4h1.7V255c0,2.6,1.2,4,3.8,4v1.5
			C220.7,260.5,219.2,260.2,218.2,259.1z"/>
		<path class="st0" d="M233.4,259.3c-0.8,0.9-2,1.5-3.6,1.5c-1.6,0-2.8-0.6-3.6-1.5c-1.3-1.4-1.7-4-1.7-9.7c0-5.7,0.3-8.3,1.7-9.7
			c0.8-0.9,2-1.5,3.6-1.5c1.6,0,2.8,0.6,3.6,1.5c1.3,1.4,1.7,4,1.7,9.7C235,255.3,234.7,257.9,233.4,259.3z M232.1,240.8
			c-0.5-0.6-1.3-1-2.3-1c-1,0-1.8,0.4-2.3,1c-1.1,1.3-1.3,3.6-1.3,8.8c0,5.2,0.1,7.5,1.3,8.8c0.5,0.6,1.3,1,2.3,1c1,0,1.8-0.4,2.3-1
			c1.1-1.3,1.3-3.6,1.3-8.8C233.4,244.3,233.2,242,232.1,240.8z"/>
		<path class="st0" d="M247.5,268.1c-0.8,0.9-2.1,1.5-3.6,1.5c-1.5,0-2.7-0.4-3.7-1.3c-1-1.1-1.4-2.4-1.4-4.5h1.6
			c0,1.5,0.2,2.7,1,3.5c0.6,0.6,1.5,0.9,2.3,0.9c1,0,1.8-0.4,2.3-1c0.9-1,1.2-2.7,1.2-6v-2.4c-0.2,0.4-0.7,1-1.1,1.3
			c-0.7,0.5-1.5,0.7-2.6,0.7c-1.2,0-2.3-0.5-3.2-1.5c-1.3-1.4-1.7-4.1-1.7-9.8c0-5.7,0.3-8.3,1.7-9.8c0.7-0.8,1.8-1.5,3.2-1.5
			c1,0,1.9,0.3,2.6,0.8c0.3,0.3,0.9,0.8,1.1,1.3v-1.8h1.7v22.6C249.1,265.2,248.8,266.7,247.5,268.1z M247.4,244
			c0-1.6-0.4-2.7-1.1-3.4c-0.6-0.6-1.4-0.9-2.3-0.9c-1,0-1.7,0.4-2.3,1c-1.1,1.3-1.3,3.6-1.3,8.8c0,5.2,0.1,7.5,1.3,8.8
			c0.5,0.6,1.3,1,2.3,1c0.9,0,1.7-0.3,2.3-0.9c0.7-0.7,1.1-1.8,1.1-3.4V244z"/>
		<path class="st1" d="M256.1,235h-1.7l2.7-5.5h2L256.1,235z M254.4,260.5v-21.8h1.7v21.8H254.4z"/>
		<path class="st0" d="M269.3,259.2c-1,1-2.3,1.6-4,1.6c-1.6,0-2.8-0.6-3.7-1.5c-1.3-1.3-1.6-2.9-1.6-4.7h1.7c0,1.6,0.3,2.7,1.3,3.7
			c0.7,0.7,1.5,1,2.4,1c1.1,0,2.1-0.4,2.8-1.1c0.7-0.7,1.1-1.8,1.1-3.1c0-1-0.2-1.9-0.7-2.7c-0.5-0.8-1.3-1.4-2.4-2.1l-2.7-1.6
			c-1.3-0.8-2.3-1.8-2.7-2.6c-0.4-0.8-0.6-1.7-0.6-2.7c0-1.5,0.6-2.9,1.6-3.9c0.9-0.9,2.2-1.4,3.6-1.4c1.6,0,2.7,0.4,3.7,1.4
			c1.1,1.1,1.5,2.6,1.5,4.7H269c0-1.9-0.3-2.8-1.1-3.6c-0.7-0.7-1.5-1-2.4-1c-1,0-1.9,0.3-2.5,0.9c-0.8,0.7-1.1,1.9-1.1,2.9
			c0,0.8,0.1,1.5,0.5,2.1c0.3,0.6,1.1,1.2,2.1,1.8l2.7,1.6c1.3,0.8,2.3,1.7,2.9,2.7c0.6,1,0.8,2.2,0.8,3.4
			C270.9,256.7,270.3,258.2,269.3,259.2z"/>
		<path class="st0" d="M277,259.1c-1-1-1.4-2.3-1.4-4.1v-15h-2.8v-1.3h2.8V232h1.7v6.7h4v1.3h-4v15c0,2.8,1.5,4,4.2,4v1.5
			C279.8,260.5,278.2,260.3,277,259.1z"/>
		<path class="st0" d="M284.4,232.8v-2.4h2.4v2.4H284.4z M284.8,260.5v-21.8h1.7v21.8H284.8z"/>
		<path class="st0" d="M299.9,259.5c-0.9,0.9-2.1,1.3-3.6,1.3s-2.8-0.6-3.6-1.5c-1.3-1.4-1.7-4-1.7-9.7c0-5.7,0.3-8.3,1.7-9.7
			c0.8-0.9,2.1-1.5,3.6-1.5c1.6,0,2.7,0.4,3.6,1.3c1.3,1.3,1.4,2.9,1.4,4.6h-1.6c0-1.3,0-2.5-1-3.5c-0.6-0.7-1.4-0.9-2.4-0.9
			c-1,0-1.9,0.4-2.4,1c-1.1,1.3-1.3,3.6-1.3,8.8c0,5.2,0.1,7.5,1.3,8.8c0.5,0.6,1.3,1,2.4,1c0.9,0,1.7-0.3,2.3-0.9
			c0.9-0.9,1-2,1-3.5h1.6C301.2,257,300.9,258.4,299.9,259.5z"/>
		<path class="st0" d="M312.9,260.5v-2c-0.3,0.6-0.8,1.2-1.1,1.5c-0.7,0.6-1.5,0.9-2.7,0.9s-2.3-0.4-3.2-1.3c-0.8-0.8-1.5-2.5-1.5-5
			c0-2.1,0.6-3.9,1.8-5c1.1-1,2.3-1.4,4-1.4h2.7v-4.3c0-2.7-1.1-4.2-3.3-4.2c-0.9,0-1.7,0.3-2.2,0.9c-0.8,0.8-1.1,1.8-1.1,3.4h-1.7
			c0-1.6,0.3-3.2,1.5-4.4c0.9-0.9,1.9-1.3,3.4-1.3c1.7,0,2.8,0.5,3.6,1.3c1,1,1.4,2.3,1.4,4.3v16.6H312.9z M312.9,249.6h-2.8
			c-1.2,0-2,0.3-2.8,1c-0.8,0.8-1.3,2.3-1.3,4c0,2.9,1,4.8,3.3,4.8c2.2,0,3.5-1.9,3.5-4.3V249.6z"/>
	</g>
	<g>
		<path class="st2" d="M252.3,263.4l1.3,3.2l1.4-3.2h0.6v3.6h-0.4v-3.1h0l-1.4,3.1h-0.4l-1.3-3.1h0v3.1h-0.4v-3.6H252.3z"/>
		<path class="st2" d="M258.5,264.4c0.2,0.1,0.3,0.2,0.4,0.3c0.1,0.1,0.2,0.3,0.3,0.4c0.1,0.2,0.1,0.3,0.1,0.5c0,0.2,0,0.4-0.1,0.5
			c-0.1,0.2-0.1,0.3-0.3,0.4c-0.1,0.1-0.3,0.2-0.4,0.3c-0.2,0.1-0.4,0.1-0.6,0.1c-0.2,0-0.4,0-0.6-0.1c-0.2-0.1-0.3-0.2-0.4-0.3
			c-0.1-0.1-0.2-0.3-0.3-0.4c-0.1-0.2-0.1-0.3-0.1-0.5c0-0.2,0-0.4,0.1-0.5c0.1-0.2,0.1-0.3,0.3-0.4c0.1-0.1,0.3-0.2,0.4-0.3
			c0.2-0.1,0.4-0.1,0.6-0.1C258.1,264.3,258.3,264.3,258.5,264.4z M257.4,264.6c-0.1,0.1-0.2,0.1-0.3,0.3c-0.1,0.1-0.1,0.2-0.2,0.4
			c0,0.1-0.1,0.3-0.1,0.4c0,0.1,0,0.3,0.1,0.4c0,0.1,0.1,0.3,0.2,0.4c0.1,0.1,0.2,0.2,0.3,0.3c0.1,0.1,0.3,0.1,0.4,0.1
			s0.3,0,0.4-0.1c0.1-0.1,0.2-0.1,0.3-0.3c0.1-0.1,0.1-0.2,0.2-0.4c0-0.1,0.1-0.3,0.1-0.4c0-0.1,0-0.3-0.1-0.4
			c0-0.1-0.1-0.3-0.2-0.4c-0.1-0.1-0.2-0.2-0.3-0.3c-0.1-0.1-0.3-0.1-0.4-0.1S257.6,264.6,257.4,264.6z"/>
		<path class="st2" d="M260.2,264.4l0.9,2.3h0l0.9-2.3h0.4l-1.1,2.6h-0.4l-1.1-2.6H260.2z"/>
		<path class="st2" d="M263.3,266.1c0,0.1,0.1,0.2,0.2,0.3c0.1,0.1,0.2,0.2,0.3,0.2c0.1,0.1,0.3,0.1,0.4,0.1c0.3,0,0.5-0.1,0.6-0.2
			s0.2-0.3,0.3-0.5h0.4c-0.1,0.3-0.2,0.5-0.4,0.7c-0.2,0.2-0.5,0.2-0.9,0.2c-0.2,0-0.4,0-0.6-0.1c-0.2-0.1-0.3-0.2-0.4-0.3
			c-0.1-0.1-0.2-0.3-0.2-0.4c-0.1-0.2-0.1-0.3-0.1-0.5c0-0.2,0-0.3,0.1-0.5c0.1-0.2,0.1-0.3,0.2-0.4c0.1-0.1,0.2-0.2,0.4-0.3
			c0.2-0.1,0.4-0.1,0.6-0.1c0.2,0,0.4,0,0.6,0.1c0.2,0.1,0.3,0.2,0.4,0.3c0.1,0.1,0.2,0.3,0.2,0.5s0.1,0.4,0.1,0.5h-2.3
			C263.2,265.9,263.2,266,263.3,266.1z M265,265.1c0-0.1-0.1-0.2-0.2-0.3c-0.1-0.1-0.2-0.2-0.3-0.2c-0.1-0.1-0.2-0.1-0.4-0.1
			c-0.1,0-0.3,0-0.4,0.1c-0.1,0.1-0.2,0.1-0.3,0.2c-0.1,0.1-0.1,0.2-0.2,0.3c0,0.1-0.1,0.2-0.1,0.3h1.9
			C265.1,265.4,265.1,265.2,265,265.1z"/>
		<path class="st2" d="M266.6,264.4v0.4h0c0.1-0.2,0.2-0.3,0.4-0.4c0.2-0.1,0.3-0.1,0.6-0.1c0.2,0,0.4,0,0.5,0.1
			c0.2,0.1,0.3,0.2,0.3,0.4c0.1-0.2,0.2-0.3,0.4-0.4c0.2-0.1,0.4-0.1,0.5-0.1c0.6,0,1,0.3,1,0.9v1.8h-0.4v-1.7
			c0-0.2-0.1-0.4-0.2-0.5c-0.1-0.1-0.3-0.2-0.5-0.2c-0.2,0-0.3,0-0.4,0.1c-0.1,0.1-0.2,0.1-0.2,0.2c-0.1,0.1-0.1,0.2-0.1,0.3
			c0,0.1,0,0.2,0,0.4v1.5h-0.4v-1.8c0-0.1,0-0.2,0-0.2c0-0.1-0.1-0.1-0.1-0.2c0-0.1-0.1-0.1-0.2-0.1c-0.1,0-0.2-0.1-0.3-0.1
			c-0.2,0-0.3,0-0.4,0.1c-0.1,0-0.2,0.1-0.3,0.2c-0.1,0.1-0.1,0.2-0.2,0.3c0,0.1-0.1,0.2-0.1,0.4v1.5h-0.4v-2.6H266.6z"/>
		<path class="st2" d="M273.1,264.4c0.2,0.1,0.3,0.2,0.4,0.3c0.1,0.1,0.2,0.3,0.3,0.4c0.1,0.2,0.1,0.3,0.1,0.5c0,0.2,0,0.4-0.1,0.5
			c-0.1,0.2-0.1,0.3-0.3,0.4c-0.1,0.1-0.3,0.2-0.4,0.3c-0.2,0.1-0.4,0.1-0.6,0.1c-0.2,0-0.4,0-0.6-0.1c-0.2-0.1-0.3-0.2-0.4-0.3
			c-0.1-0.1-0.2-0.3-0.3-0.4c-0.1-0.2-0.1-0.3-0.1-0.5c0-0.2,0-0.4,0.1-0.5c0.1-0.2,0.1-0.3,0.3-0.4c0.1-0.1,0.3-0.2,0.4-0.3
			c0.2-0.1,0.4-0.1,0.6-0.1C272.7,264.3,272.9,264.3,273.1,264.4z M272,264.6c-0.1,0.1-0.2,0.1-0.3,0.3c-0.1,0.1-0.1,0.2-0.2,0.4
			c0,0.1-0.1,0.3-0.1,0.4c0,0.1,0,0.3,0.1,0.4c0,0.1,0.1,0.3,0.2,0.4c0.1,0.1,0.2,0.2,0.3,0.3c0.1,0.1,0.3,0.1,0.4,0.1
			c0.2,0,0.3,0,0.4-0.1c0.1-0.1,0.2-0.1,0.3-0.3c0.1-0.1,0.1-0.2,0.2-0.4c0-0.1,0.1-0.3,0.1-0.4c0-0.1,0-0.3-0.1-0.4
			c0-0.1-0.1-0.3-0.2-0.4c-0.1-0.1-0.2-0.2-0.3-0.3c-0.1-0.1-0.3-0.1-0.4-0.1C272.3,264.5,272.2,264.6,272,264.6z"/>
		<path class="st2" d="M276.4,264.9c0-0.1-0.1-0.1-0.2-0.2c-0.1,0-0.2-0.1-0.2-0.1c-0.1,0-0.2,0-0.3,0c-0.1,0-0.2,0-0.2,0
			c-0.1,0-0.2,0-0.2,0.1c-0.1,0-0.1,0.1-0.2,0.1c0,0.1-0.1,0.1-0.1,0.2c0,0.1,0,0.1,0.1,0.2c0,0,0.1,0.1,0.2,0.1
			c0.1,0,0.1,0.1,0.2,0.1c0.1,0,0.1,0,0.2,0.1l0.5,0.1c0.1,0,0.2,0,0.3,0.1c0.1,0,0.2,0.1,0.3,0.1c0.1,0.1,0.1,0.1,0.2,0.2
			c0,0.1,0.1,0.2,0.1,0.3c0,0.1,0,0.3-0.1,0.4c-0.1,0.1-0.2,0.2-0.3,0.2c-0.1,0.1-0.2,0.1-0.4,0.1c-0.1,0-0.3,0-0.4,0
			c-0.3,0-0.6-0.1-0.8-0.2c-0.2-0.1-0.3-0.4-0.4-0.7h0.4c0,0.2,0.1,0.4,0.3,0.5c0.2,0.1,0.4,0.2,0.6,0.2c0.1,0,0.2,0,0.3,0
			c0.1,0,0.2,0,0.3-0.1s0.1-0.1,0.2-0.2c0.1-0.1,0.1-0.1,0.1-0.2c0-0.1,0-0.1-0.1-0.2c0-0.1-0.1-0.1-0.1-0.1c-0.1,0-0.1-0.1-0.2-0.1
			c-0.1,0-0.2,0-0.2-0.1l-0.5-0.1c-0.1,0-0.2-0.1-0.3-0.1c-0.1,0-0.2-0.1-0.3-0.1c-0.1-0.1-0.1-0.1-0.2-0.2c0-0.1-0.1-0.2-0.1-0.3
			c0-0.1,0-0.2,0.1-0.3c0.1-0.1,0.2-0.2,0.3-0.2c0.1-0.1,0.2-0.1,0.4-0.1c0.1,0,0.3,0,0.4,0c0.1,0,0.3,0,0.4,0.1
			c0.1,0,0.2,0.1,0.3,0.2c0.1,0.1,0.2,0.2,0.2,0.3s0.1,0.2,0.1,0.4h-0.4C276.5,265,276.4,264.9,276.4,264.9z"/>
		<path class="st2" d="M279.9,263.4v3.6h-0.4v-3.6H279.9z"/>
		<path class="st2" d="M282.8,264.4c0.2,0.1,0.3,0.2,0.4,0.3c0.1,0.1,0.2,0.3,0.3,0.4c0.1,0.2,0.1,0.3,0.1,0.5c0,0.2,0,0.4-0.1,0.5
			c-0.1,0.2-0.1,0.3-0.3,0.4c-0.1,0.1-0.3,0.2-0.4,0.3c-0.2,0.1-0.4,0.1-0.6,0.1c-0.2,0-0.4,0-0.6-0.1c-0.2-0.1-0.3-0.2-0.4-0.3
			c-0.1-0.1-0.2-0.3-0.3-0.4c-0.1-0.2-0.1-0.3-0.1-0.5c0-0.2,0-0.4,0.1-0.5c0.1-0.2,0.1-0.3,0.3-0.4c0.1-0.1,0.3-0.2,0.4-0.3
			c0.2-0.1,0.4-0.1,0.6-0.1C282.4,264.3,282.6,264.3,282.8,264.4z M281.7,264.6c-0.1,0.1-0.2,0.1-0.3,0.3c-0.1,0.1-0.1,0.2-0.2,0.4
			c0,0.1-0.1,0.3-0.1,0.4c0,0.1,0,0.3,0.1,0.4c0,0.1,0.1,0.3,0.2,0.4c0.1,0.1,0.2,0.2,0.3,0.3c0.1,0.1,0.3,0.1,0.4,0.1
			c0.2,0,0.3,0,0.4-0.1c0.1-0.1,0.2-0.1,0.3-0.3c0.1-0.1,0.1-0.2,0.2-0.4c0-0.1,0.1-0.3,0.1-0.4c0-0.1,0-0.3-0.1-0.4
			c0-0.1-0.1-0.3-0.2-0.4c-0.1-0.1-0.2-0.2-0.3-0.3c-0.1-0.1-0.3-0.1-0.4-0.1C282,264.5,281.8,264.6,281.7,264.6z"/>
		<path class="st2" d="M286.6,264.4v0.4h0c0.1-0.2,0.2-0.3,0.4-0.4c0.2-0.1,0.3-0.1,0.6-0.1c0.2,0,0.4,0,0.5,0.1
			c0.2,0.1,0.3,0.2,0.3,0.4c0.1-0.2,0.2-0.3,0.4-0.4c0.2-0.1,0.4-0.1,0.5-0.1c0.6,0,1,0.3,1,0.9v1.8h-0.4v-1.7
			c0-0.2-0.1-0.4-0.2-0.5c-0.1-0.1-0.3-0.2-0.5-0.2c-0.2,0-0.3,0-0.4,0.1c-0.1,0.1-0.2,0.1-0.2,0.2c-0.1,0.1-0.1,0.2-0.1,0.3
			c0,0.1,0,0.2,0,0.4v1.5h-0.4v-1.8c0-0.1,0-0.2,0-0.2c0-0.1-0.1-0.1-0.1-0.2c0-0.1-0.1-0.1-0.2-0.1c-0.1,0-0.2-0.1-0.3-0.1
			c-0.2,0-0.3,0-0.4,0.1c-0.1,0-0.2,0.1-0.3,0.2c-0.1,0.1-0.1,0.2-0.2,0.3c0,0.1-0.1,0.2-0.1,0.4v1.5h-0.4v-2.6H286.6z"/>
		<path class="st2" d="M291.5,266.1c0,0.1,0.1,0.2,0.2,0.3c0.1,0.1,0.2,0.2,0.3,0.2c0.1,0.1,0.3,0.1,0.4,0.1c0.3,0,0.5-0.1,0.6-0.2
			s0.2-0.3,0.3-0.5h0.4c-0.1,0.3-0.2,0.5-0.4,0.7c-0.2,0.2-0.5,0.2-0.9,0.2c-0.2,0-0.4,0-0.6-0.1c-0.2-0.1-0.3-0.2-0.4-0.3
			c-0.1-0.1-0.2-0.3-0.2-0.4c-0.1-0.2-0.1-0.3-0.1-0.5c0-0.2,0-0.3,0.1-0.5c0.1-0.2,0.1-0.3,0.2-0.4c0.1-0.1,0.2-0.2,0.4-0.3
			c0.2-0.1,0.4-0.1,0.6-0.1c0.2,0,0.4,0,0.6,0.1c0.2,0.1,0.3,0.2,0.4,0.3c0.1,0.1,0.2,0.3,0.2,0.5s0.1,0.4,0.1,0.5h-2.3
			C291.5,265.9,291.5,266,291.5,266.1z M293.3,265.1c0-0.1-0.1-0.2-0.2-0.3c-0.1-0.1-0.2-0.2-0.3-0.2c-0.1-0.1-0.2-0.1-0.4-0.1
			c-0.1,0-0.3,0-0.4,0.1c-0.1,0.1-0.2,0.1-0.3,0.2c-0.1,0.1-0.1,0.2-0.2,0.3c0,0.1-0.1,0.2-0.1,0.3h1.9
			C293.4,265.4,293.3,265.2,293.3,265.1z"/>
		<path class="st2" d="M294.8,264.4v2.8c0,0.1,0,0.2,0,0.3c0,0.1,0,0.2-0.1,0.2c0,0.1-0.1,0.1-0.2,0.2c-0.1,0-0.2,0.1-0.3,0.1
			c0,0-0.1,0-0.1,0c0,0-0.1,0-0.1,0v-0.3c0,0,0.1,0,0.1,0c0,0,0.1,0,0.1,0c0.1,0,0.2,0,0.3-0.1c0-0.1,0.1-0.2,0.1-0.3v-2.9H294.8z
			 M294.8,263.4v0.5h-0.4v-0.5H294.8z"/>
		<path class="st2" d="M297.7,264.4c0.2,0.1,0.3,0.2,0.4,0.3c0.1,0.1,0.2,0.3,0.3,0.4c0.1,0.2,0.1,0.3,0.1,0.5c0,0.2,0,0.4-0.1,0.5
			c-0.1,0.2-0.1,0.3-0.3,0.4c-0.1,0.1-0.3,0.2-0.4,0.3c-0.2,0.1-0.4,0.1-0.6,0.1c-0.2,0-0.4,0-0.6-0.1c-0.2-0.1-0.3-0.2-0.4-0.3
			c-0.1-0.1-0.2-0.3-0.3-0.4c-0.1-0.2-0.1-0.3-0.1-0.5c0-0.2,0-0.4,0.1-0.5c0.1-0.2,0.1-0.3,0.3-0.4c0.1-0.1,0.3-0.2,0.4-0.3
			c0.2-0.1,0.4-0.1,0.6-0.1C297.3,264.3,297.5,264.3,297.7,264.4z M296.6,264.6c-0.1,0.1-0.2,0.1-0.3,0.3c-0.1,0.1-0.1,0.2-0.2,0.4
			c0,0.1-0.1,0.3-0.1,0.4c0,0.1,0,0.3,0.1,0.4c0,0.1,0.1,0.3,0.2,0.4c0.1,0.1,0.2,0.2,0.3,0.3c0.1,0.1,0.3,0.1,0.4,0.1
			c0.2,0,0.3,0,0.4-0.1c0.1-0.1,0.2-0.1,0.3-0.3c0.1-0.1,0.1-0.2,0.2-0.4c0-0.1,0.1-0.3,0.1-0.4c0-0.1,0-0.3-0.1-0.4
			c0-0.1-0.1-0.3-0.2-0.4c-0.1-0.1-0.2-0.2-0.3-0.3c-0.1-0.1-0.3-0.1-0.4-0.1C296.9,264.5,296.7,264.6,296.6,264.6z"/>
		<path class="st2" d="M299.6,264.4v0.6h0c0.1-0.2,0.2-0.4,0.4-0.5c0.2-0.1,0.4-0.2,0.7-0.2v0.3c-0.2,0-0.3,0-0.4,0.1
			c-0.1,0-0.2,0.1-0.3,0.2c-0.1,0.1-0.2,0.2-0.2,0.3c-0.1,0.1-0.1,0.2-0.1,0.4v1.4h-0.4v-2.6H299.6z"/>
		<path class="st2" d="M305.5,267v-0.5h0c0,0.1-0.1,0.2-0.2,0.2c-0.1,0.1-0.2,0.1-0.3,0.2c-0.1,0-0.2,0.1-0.3,0.1
			c-0.1,0-0.2,0-0.3,0c-0.2,0-0.4,0-0.6-0.1c-0.2-0.1-0.3-0.2-0.4-0.3c-0.1-0.1-0.2-0.3-0.2-0.4c-0.1-0.2-0.1-0.3-0.1-0.5
			c0-0.2,0-0.4,0.1-0.5c0.1-0.2,0.1-0.3,0.2-0.4c0.1-0.1,0.2-0.2,0.4-0.3c0.2-0.1,0.4-0.1,0.6-0.1c0.1,0,0.2,0,0.3,0
			c0.1,0,0.2,0.1,0.3,0.1c0.1,0,0.2,0.1,0.2,0.2c0.1,0.1,0.1,0.2,0.2,0.2h0v-1.5h0.4v3.6H305.5z M303.5,266.1c0,0.1,0.1,0.3,0.2,0.4
			c0.1,0.1,0.2,0.2,0.3,0.3c0.1,0.1,0.3,0.1,0.4,0.1c0.2,0,0.3,0,0.5-0.1c0.1-0.1,0.2-0.2,0.3-0.3c0.1-0.1,0.1-0.2,0.2-0.4
			c0-0.1,0.1-0.3,0.1-0.4c0-0.1,0-0.3-0.1-0.4c0-0.1-0.1-0.3-0.2-0.4c-0.1-0.1-0.2-0.2-0.3-0.3c-0.1-0.1-0.3-0.1-0.5-0.1
			c-0.2,0-0.3,0-0.4,0.1c-0.1,0.1-0.2,0.2-0.3,0.3c-0.1,0.1-0.1,0.2-0.2,0.4c0,0.1-0.1,0.3-0.1,0.4
			C303.4,265.8,303.5,265.9,303.5,266.1z"/>
		<path class="st2" d="M307,266.1c0,0.1,0.1,0.2,0.2,0.3c0.1,0.1,0.2,0.2,0.3,0.2c0.1,0.1,0.3,0.1,0.4,0.1c0.3,0,0.5-0.1,0.6-0.2
			s0.2-0.3,0.3-0.5h0.4c-0.1,0.3-0.2,0.5-0.4,0.7c-0.2,0.2-0.5,0.2-0.9,0.2c-0.2,0-0.4,0-0.6-0.1c-0.2-0.1-0.3-0.2-0.4-0.3
			c-0.1-0.1-0.2-0.3-0.2-0.4s-0.1-0.3-0.1-0.5c0-0.2,0-0.3,0.1-0.5c0.1-0.2,0.1-0.3,0.2-0.4c0.1-0.1,0.2-0.2,0.4-0.3
			c0.2-0.1,0.4-0.1,0.6-0.1c0.2,0,0.4,0,0.6,0.1c0.2,0.1,0.3,0.2,0.4,0.3c0.1,0.1,0.2,0.3,0.2,0.5c0,0.2,0.1,0.4,0.1,0.5H307
			C307,265.9,307,266,307,266.1z M308.8,265.1c0-0.1-0.1-0.2-0.2-0.3c-0.1-0.1-0.2-0.2-0.3-0.2c-0.1-0.1-0.2-0.1-0.4-0.1
			c-0.1,0-0.3,0-0.4,0.1c-0.1,0.1-0.2,0.1-0.3,0.2c-0.1,0.1-0.1,0.2-0.2,0.3c0,0.1-0.1,0.2-0.1,0.3h1.9
			C308.9,265.4,308.8,265.2,308.8,265.1z"/>
		<path class="st2" d="M313,264.4v0.3h-0.6v1.8c0,0.1,0,0.2,0,0.2c0,0.1,0.1,0.1,0.2,0.1c0.1,0,0.2,0,0.3,0v0.3c-0.1,0-0.1,0-0.2,0
			c-0.1,0-0.1,0-0.2,0c-0.2,0-0.4,0-0.5-0.1c-0.1-0.1-0.1-0.2-0.1-0.5v-1.8h-0.5v-0.3h0.5v-0.8h0.4v0.8H313z"/>
		<path class="st2" d="M314.2,263.4v0.5h-0.4v-0.5H314.2z M314.2,264.4v2.6h-0.4v-2.6H314.2z"/>
	</g>
	<g>
		<path class="st3" d="M199.9,258.5L199.9,258.5c-0.8,0-1.5-0.7-1.5-1.5v-24.2c0-0.8,0.7-1.5,1.5-1.5l0,0c0.8,0,1.5,0.7,1.5,1.5V257
			C201.4,257.8,200.7,258.5,199.9,258.5z"/>
		<path class="st3" d="M186.3,244.9L186.3,244.9c0-0.8,0.7-1.5,1.5-1.5H212c0.8,0,1.5,0.7,1.5,1.5l0,0c0,0.8-0.7,1.5-1.5,1.5h-24.2
			C187,246.4,186.3,245.7,186.3,244.9z"/>
	</g>
</g>
</svg>
